<svg
  width="337"
  height="351"
  viewBox="0 0 337 351"
  fill="none"
  xmlns="http://www.w3.org/2000/svg"
>
<path
    fill-rule="evenodd"
    clip-rule="evenodd"
    d="M212.91 0.521035C203.128 -0.825627 192.001 4.10511 179.552 4.31787C165.443 4.55888 160.752 4.22132 148.854 17.1959C131.963 35.6153 153.675 90.9121 180.448 92.6314C187.137 93.0609 195.407 88.4372 202.178 89.4162C206.24 90.0037 208.646 94.3895 212.645 94.3623C224.758 94.2794 232.717 89.4159 234.584 77.3186C249.286 130.506 223.664 135.663 215.108 191.163C214.979 192 211.323 213.466 210.682 214.059C162.979 184.841 129.591 181.918 78.1912 209.646C67.4252 203.77 6.46496 200.436 5.13025 212.244C-4.16266 294.457 2.00809 255.769 2.00809 337.763C11.0912 346.169 31.0289 354.94 34.1765 349.114C34.3795 323.669 37.862 294.176 120.757 302.201C148.377 304.875 176.125 287.165 224.925 290.852C245.973 292.442 293.193 298.205 321.564 284.768C343.336 274.456 337.03 253.402 332.654 232.083C329.224 215.371 325.558 195.158 321.953 178.476C311.089 128.204 310.162 104.315 267.545 25.4286C255.988 4.03696 236.912 -1.94722 212.91 0.521035Z"
    fill="white"
  />
</svg>
