<svg
  width="35"
  height="43"
  viewBox="0 0 35 43"
  fill="none"
  xmlns="http://www.w3.org/2000/svg"
>
<path
    fill-rule="evenodd"
    clip-rule="evenodd"
    d="M21.0352 2.54094C20.2141 2.42503 19.28 2.84945 18.235 2.86777C17.0506 2.88851 16.6569 2.85946 15.6581 3.97629C14.2401 5.56179 16.0628 10.3216 18.3102 10.4696C18.8717 10.5066 19.5659 10.1086 20.1343 10.1929C20.4753 10.2435 20.6773 10.621 21.0129 10.6186C22.0297 10.6115 22.6978 10.1928 22.8546 9.15154C24.0887 13.7298 21.9379 14.1737 21.2197 18.951C21.2089 19.0231 20.902 20.8709 20.8482 20.9219C16.8438 18.4069 14.041 18.1552 9.72634 20.5421C8.8226 20.0362 3.70535 19.7493 3.59331 20.7656C2.81323 27.8425 3.33123 24.5122 3.33123 31.5701C4.0937 32.2937 5.76735 33.0487 6.03157 32.5472C6.04861 30.3569 6.34095 27.8182 13.2995 28.509C15.618 28.7391 17.9473 27.2147 22.0437 27.5321C23.8106 27.669 27.7745 28.165 30.1561 27.0084C31.9837 26.1208 31.4543 24.3085 31.087 22.4733C30.7991 21.0348 30.4913 19.295 30.1887 17.859C29.2768 13.5316 29.1989 11.4753 25.6215 4.68494C24.6514 2.84359 23.05 2.32848 21.0352 2.54094Z"
    fill="white"
  />
</svg>
