<svg
  width="24"
  height="24"
  viewBox="0 0 20 20"
  fill="none"
  xmlns="http://www.w3.org/2000/svg"
>
<mask
    id="path-1-outside-1_220_2117"
    maskUnits="userSpaceOnUse"
    x="2.16663"
    y="3"
    width="15"
    height="15"
    fill="black"
  >
<rect fill="white" x="2.16663" y="3" width="15" height="15" />
<path
      d="M11.25 6.25L5.39167 12.1083C5.19702 12.3029 5.0997 12.4003 5.03272 12.5186C4.96575 12.6368 4.93237 12.7704 4.8656 13.0374L4.36874 15.0249C4.27848 15.3859 4.23335 15.5664 4.33344 15.6665C4.43353 15.7666 4.61404 15.7215 4.97507 15.6312L4.97508 15.6312L6.96253 15.1344C7.22959 15.0676 7.36312 15.0342 7.48141 14.9672C7.5997 14.9003 7.69702 14.8029 7.89167 14.6083L13.75 8.75C14.2585 8.24147 14.5127 7.98721 14.5692 7.68139C14.5913 7.56147 14.5913 7.43853 14.5692 7.31861C14.5127 7.01279 14.2585 6.75853 13.75 6.25L13.75 6.24999C13.2414 5.74147 12.9872 5.48721 12.6813 5.4308C12.5614 5.40868 12.4385 5.40868 12.3186 5.4308C12.0128 5.48721 11.7585 5.74147 11.25 6.25Z"
    />
</mask>
<path
    d="M5.39167 12.1083L3.97746 10.6941L3.97746 10.6941L5.39167 12.1083ZM11.25 6.25L12.6642 7.66421L12.6642 7.66421L11.25 6.25ZM13.75 8.75L12.3357 7.33579L12.3357 7.33579L13.75 8.75ZM7.89167 14.6083L6.47746 13.1941L6.47746 13.1941L7.89167 14.6083ZM4.8656 13.0374L2.92532 12.5524L2.92532 12.5524L4.8656 13.0374ZM4.36874 15.0249L6.30902 15.51L6.30902 15.51L4.36874 15.0249ZM4.97508 15.6312L4.49001 13.6909L4.40287 13.7127L4.31804 13.7422L4.97508 15.6312ZM6.96253 15.1344L6.47747 13.1941L6.47746 13.1941L6.96253 15.1344ZM4.33344 15.6665L5.74766 14.2523L5.74765 14.2523L4.33344 15.6665ZM4.97507 15.6312L5.46013 17.5715L5.54727 17.5497L5.63211 17.5202L4.97507 15.6312ZM7.48141 14.9672L6.49601 13.2268L6.496 13.2268L7.48141 14.9672ZM13.75 6.25L12.3357 7.66421L12.3357 7.66421L13.75 6.25ZM14.5692 7.31861L16.536 6.95585L16.536 6.95584L14.5692 7.31861ZM14.5692 7.68139L16.536 8.04416L16.536 8.04415L14.5692 7.68139ZM12.3186 5.4308L12.6813 7.39763L12.6813 7.39763L12.3186 5.4308ZM13.75 6.24999L15.1642 4.83578L15.1642 4.83578L13.75 6.24999ZM12.6813 5.4308L12.3186 7.39763L12.3186 7.39763L12.6813 5.4308ZM5.03272 12.5186L6.77312 13.504L6.77312 13.5039L5.03272 12.5186ZM6.80589 13.5225L12.6642 7.66421L9.83574 4.83579L3.97746 10.6941L6.80589 13.5225ZM12.3357 7.33579L6.47746 13.1941L9.30589 16.0225L15.1642 10.1642L12.3357 7.33579ZM2.92532 12.5524L2.42845 14.5398L6.30902 15.51L6.80589 13.5225L2.92532 12.5524ZM5.46015 17.5715L7.4476 17.0746L6.47746 13.1941L4.49001 13.6909L5.46015 17.5715ZM2.42845 14.5398C2.39963 14.6551 2.31718 14.9629 2.28921 15.2488C2.25883 15.5595 2.23172 16.3932 2.91923 17.0807L5.74765 14.2523C6.01334 14.518 6.16577 14.8338 6.23307 15.1262C6.29175 15.3811 6.27628 15.5762 6.27021 15.6383C6.26361 15.7057 6.25454 15.7374 6.26363 15.6964C6.272 15.6587 6.28451 15.608 6.30902 15.51L2.42845 14.5398ZM4.31804 13.7422L4.31803 13.7422L5.63211 17.5202L5.63212 17.5202L4.31804 13.7422ZM4.49001 13.6909C4.39193 13.7155 4.34129 13.728 4.30356 13.7363C4.26258 13.7454 4.29425 13.7363 4.36169 13.7297C4.42374 13.7237 4.61886 13.7082 4.8738 13.7669C5.16617 13.8342 5.48198 13.9866 5.74766 14.2523L2.91922 17.0807C3.60673 17.7682 4.4405 17.7411 4.75112 17.7107C5.03701 17.6828 5.34484 17.6003 5.46013 17.5715L4.49001 13.6909ZM6.47746 13.1941C6.45275 13.2188 6.43166 13.2399 6.4121 13.2593C6.39267 13.2787 6.37667 13.2945 6.36289 13.308C6.34912 13.3215 6.33907 13.3312 6.33168 13.3382C6.32808 13.3416 6.32541 13.3441 6.32357 13.3458C6.32172 13.3475 6.32086 13.3483 6.32088 13.3482C6.3209 13.3482 6.32194 13.3473 6.32391 13.3456C6.32588 13.3439 6.32889 13.3413 6.33287 13.338C6.34082 13.3314 6.35288 13.3216 6.36862 13.3098C6.38451 13.2979 6.40358 13.2843 6.4256 13.2699C6.44772 13.2553 6.47127 13.2408 6.49601 13.2268L8.4668 16.7076C8.87594 16.476 9.18632 16.1421 9.30589 16.0225L6.47746 13.1941ZM7.4476 17.0746C7.61165 17.0336 8.05767 16.9393 8.46681 16.7076L6.496 13.2268C6.52075 13.2128 6.54526 13.2001 6.56913 13.1886C6.59288 13.1772 6.61434 13.1678 6.63272 13.1603C6.65094 13.1529 6.66549 13.1475 6.67525 13.1441C6.68013 13.1424 6.6839 13.1412 6.68638 13.1404C6.68886 13.1395 6.6902 13.1391 6.69022 13.1391C6.69024 13.1391 6.68914 13.1395 6.68672 13.1402C6.68431 13.1409 6.6808 13.1419 6.67602 13.1432C6.66621 13.1459 6.65274 13.1496 6.6341 13.1544C6.61544 13.1593 6.59364 13.1649 6.56706 13.1716C6.5403 13.1784 6.51136 13.1856 6.47747 13.1941L7.4476 17.0746ZM12.3357 7.66421C12.467 7.79544 12.5629 7.89149 12.6426 7.97437C12.7224 8.05749 12.76 8.10068 12.7761 8.12053C12.7916 8.13961 12.762 8.10664 12.7225 8.03214C12.6781 7.94866 12.6296 7.82901 12.6023 7.68139L16.536 6.95584C16.4222 6.33879 16.1192 5.89224 15.8821 5.60011C15.6671 5.33516 15.3883 5.05988 15.1642 4.83579L12.3357 7.66421ZM15.1642 10.1642C15.3883 9.94012 15.6671 9.66484 15.8821 9.39989C16.1192 9.10776 16.4222 8.66121 16.536 8.04416L12.6023 7.31861C12.6296 7.17099 12.6781 7.05134 12.7225 6.96786C12.762 6.89336 12.7916 6.86039 12.7761 6.87947C12.76 6.89932 12.7224 6.94251 12.6426 7.02563C12.5629 7.10851 12.467 7.20456 12.3357 7.33579L15.1642 10.1642ZM12.6023 7.68138C12.5802 7.56147 12.5802 7.43853 12.6023 7.31862L16.536 8.04415C16.6023 7.68442 16.6023 7.31558 16.536 6.95585L12.6023 7.68138ZM12.6642 7.66421C12.7954 7.53298 12.8914 7.43705 12.9743 7.3574C13.0574 7.27751 13.1006 7.23999 13.1205 7.22387C13.1396 7.2084 13.1066 7.23792 13.0321 7.27748C12.9486 7.32181 12.829 7.3704 12.6813 7.39763L11.9558 3.46398C11.3388 3.57779 10.8922 3.88079 10.6001 4.11784C10.3351 4.33284 10.0598 4.61169 9.83574 4.83579L12.6642 7.66421ZM15.1642 4.83579L15.1642 4.83578L12.3357 7.66421L12.3357 7.66421L15.1642 4.83579ZM15.1642 4.83578C14.9401 4.61168 14.6648 4.33283 14.3998 4.11783C14.1077 3.88078 13.6612 3.57779 13.0441 3.46398L12.3186 7.39763C12.1709 7.3704 12.0513 7.32181 11.9678 7.27748C11.8933 7.23792 11.8604 7.20839 11.8794 7.22387C11.8993 7.23998 11.9425 7.27751 12.0256 7.35739C12.1085 7.43705 12.2045 7.53298 12.3357 7.66421L15.1642 4.83578ZM12.6813 7.39763C12.5614 7.41974 12.4385 7.41974 12.3186 7.39763L13.0441 3.46398C12.6844 3.39763 12.3155 3.39763 11.9558 3.46398L12.6813 7.39763ZM3.97746 10.6941C3.85789 10.8136 3.52397 11.124 3.29232 11.5332L6.77312 13.5039C6.75911 13.5287 6.74466 13.5522 6.7301 13.5744C6.71561 13.5964 6.70203 13.6155 6.69012 13.6313C6.67833 13.6471 6.66859 13.6591 6.66198 13.6671C6.65867 13.6711 6.65609 13.6741 6.65438 13.6761C6.65267 13.678 6.65174 13.6791 6.65172 13.6791C6.6517 13.6791 6.65248 13.6782 6.65418 13.6764C6.65589 13.6745 6.65838 13.6719 6.6618 13.6683C6.6688 13.6609 6.67848 13.6508 6.69196 13.6371C6.70546 13.6233 6.72128 13.6073 6.74062 13.5879C6.76009 13.5683 6.78118 13.5472 6.80589 13.5225L3.97746 10.6941ZM6.80589 13.5225C6.81436 13.4886 6.8216 13.4597 6.82835 13.4329C6.83506 13.4063 6.84064 13.3845 6.84552 13.3659C6.85039 13.3472 6.85403 13.3337 6.85676 13.3239C6.85809 13.3192 6.8591 13.3157 6.8598 13.3132C6.8605 13.3108 6.86084 13.3097 6.86084 13.3097C6.86083 13.3098 6.86042 13.3111 6.85961 13.3136C6.8588 13.3161 6.85754 13.3198 6.85584 13.3247C6.85242 13.3345 6.84709 13.349 6.83966 13.3672C6.83216 13.3856 6.8228 13.4071 6.81137 13.4308C6.79989 13.4547 6.78713 13.4792 6.77312 13.504L3.29233 11.5332C3.06067 11.9423 2.96633 12.3883 2.92532 12.5524L6.80589 13.5225Z"
    fill="#FFFAFA"
    mask="url(#path-1-outside-1_220_2117)"
  />
<path
    d="M10.4166 6.25065L12.9166 4.58398L15.4166 7.08398L13.75 9.58398L10.4166 6.25065Z"
    fill="#FFFAFA"
  />
</svg>
