<svg width="17" height="14" viewBox="0 0 17 14" fill="none" xmlns="http://www.w3.org/2000/svg">
<path d="M3.62613 0.282511C3.55391 0.19937 3.46624 0.131695 3.36821 0.0834085C3.27019 0.0351217 3.16375 0.00718335 3.05507 0.00121281C2.94639 -0.00475773 2.83764 0.0113582 2.7351 0.0486267C2.63257 0.0858951 2.5383 0.143575 2.45775 0.218323C2.37721 0.29307 2.31199 0.3834 2.26589 0.484075C2.21978 0.584751 2.1937 0.69377 2.18916 0.804814C2.18461 0.915858 2.2017 1.02672 2.23942 1.13097C2.27714 1.23522 2.33475 1.33079 2.40891 1.41214L3.50551 2.64746C1.14439 4.25302 0.11976 6.55707 0.0704128 6.66555C0.0239809 6.77305 0 6.88926 0 7.00675C0 7.12425 0.0239809 7.24045 0.0704128 7.34795C0.0957717 7.40534 0.696159 8.76594 2.02304 10.1202C3.79679 11.9295 6.03317 12.8855 8.50051 12.8855C9.69967 12.8923 10.8881 12.6543 11.9959 12.1856L13.3728 13.7324C13.5203 13.8942 13.7243 13.99 13.9405 13.9993C14.1567 14.0085 14.3678 13.9303 14.528 13.7817C14.6881 13.633 14.7845 13.4259 14.7961 13.2052C14.8077 12.9846 14.7337 12.7681 14.5901 12.6028L3.62613 0.282511ZM8.50051 11.2058C6.47249 11.2058 4.69874 10.4548 3.2293 8.97451C2.65129 8.39006 2.15394 7.72794 1.75095 7.0064C2.11214 6.3548 3.03877 4.91372 4.62952 3.90657L10.8041 10.8432C10.0594 11.086 9.28218 11.2084 8.50051 11.2058ZM16.9306 7.34795C16.9059 7.40464 16.3138 8.74774 15.0116 10.0887C14.937 10.1733 14.8464 10.2414 14.7452 10.2891C14.6441 10.3368 14.5345 10.363 14.4231 10.3661C14.3118 10.3693 14.201 10.3493 14.0974 10.3073C13.9938 10.2654 13.8997 10.2024 13.8207 10.1222C13.7417 10.042 13.6794 9.94624 13.6378 9.84073C13.5961 9.73523 13.5758 9.62217 13.5783 9.50843C13.5807 9.39469 13.6057 9.28263 13.6518 9.17906C13.6979 9.07549 13.7641 8.98256 13.8464 8.90592C14.3934 8.33797 14.8653 7.69938 15.2501 7.0064C14.8473 6.2847 14.3499 5.62255 13.7717 5.0383C12.3016 3.55802 10.5285 2.80703 8.50051 2.80703C8.27091 2.80703 8.04131 2.81683 7.81514 2.83643C7.70615 2.84835 7.59592 2.83791 7.49094 2.8057C7.38595 2.7735 7.28833 2.7202 7.20381 2.64892C7.11929 2.57764 7.04958 2.48982 6.99877 2.39064C6.94796 2.29145 6.91708 2.18289 6.90794 2.07134C6.89881 1.95979 6.9116 1.8475 6.94556 1.74107C6.97953 1.63465 7.03399 1.53622 7.10574 1.4516C7.17749 1.36697 7.26508 1.29784 7.36336 1.24828C7.46165 1.19871 7.56865 1.16971 7.67806 1.16298C7.94742 1.13918 8.22636 1.12728 8.50051 1.12728C10.9679 1.12728 13.2042 2.08404 14.9766 3.89327C16.3028 5.24757 16.9032 6.60886 16.9286 6.66555C16.9753 6.77291 16.9996 6.88904 17 7.00653C17.0004 7.12402 16.9767 7.2403 16.9306 7.34795Z" fill="#A4A4A4"/>
</svg>
