<svg width="20" height="20" viewBox="0 0 20 20" fill="none" xmlns="http://www.w3.org/2000/svg">
<path d="M19.2013 7.79616H18.4203V7.75593H9.69491V11.6339H15.174C14.3746 13.8914 12.2267 15.5119 9.69491 15.5119C6.4825 15.5119 3.87796 12.9073 3.87796 9.69491C3.87796 6.4825 6.4825 3.87796 9.69491 3.87796C11.1777 3.87796 12.5268 4.43736 13.554 5.35111L16.2962 2.6089C14.5647 0.995183 12.2486 0 9.69491 0C4.3409 0 0 4.3409 0 9.69491C0 15.0489 4.3409 19.3898 9.69491 19.3898C15.0489 19.3898 19.3898 15.0489 19.3898 9.69491C19.3898 9.04487 19.3229 8.41034 19.2013 7.79616Z" fill="#FFC107"/>
<path d="M9.69492 19.3899C12.1991 19.3899 14.4745 18.4316 16.1949 16.8731L13.1943 14.334C12.1882 15.0991 10.9589 15.5129 9.69492 15.5119C7.17327 15.5119 5.03215 13.904 4.22554 11.6602L1.06403 14.096C2.66853 17.2357 5.92699 19.3899 9.69492 19.3899Z" fill="#4CAF50"/>
<path d="M19.2012 7.79609H18.4203V7.75586H9.69489V11.6338H15.174C14.7916 12.7082 14.1028 13.6471 13.1928 14.3343L13.1943 14.3334L16.1948 16.8725C15.9825 17.0654 19.3898 14.5423 19.3898 9.69484C19.3898 9.0448 19.3229 8.41027 19.2012 7.79609Z" fill="#1976D2"/>
<path d="M1.11774 5.18242L4.303 7.5184C5.16488 5.38455 7.25219 3.87796 9.69483 3.87796C11.1777 3.87796 12.5267 4.43736 13.5539 5.35111L16.2961 2.6089C14.5646 0.995183 12.2485 0 9.69483 0C5.97101 0 2.74163 2.10234 1.11774 5.18242Z" fill="#FF3D00"/>
</svg>
