<svg
  width="28"
  height="28"
  viewBox="0 0 28 28"
  fill="none"
  xmlns="http://www.w3.org/2000/svg"
>
<rect
    x="2.33334"
    y="3.5"
    width="23.3333"
    height="10.5"
    rx="2"
    stroke="none"
    stroke-width="2"
  />
<path
    d="M18.6667 20.9997V20.9997C18.6667 21.3093 18.6667 21.4641 18.6496 21.5941C18.5314 22.4915 17.8252 23.1977 16.9277 23.3159C16.7978 23.333 16.643 23.333 16.3333 23.333H11.6667C11.3571 23.333 11.2023 23.333 11.0723 23.3159C10.1748 23.1977 9.46861 22.4915 9.35045 21.5941C9.33334 21.4641 9.33334 21.3093 9.33334 20.9997V20.9997"
    stroke="none"
    stroke-width="2"
  />
<path
    d="M22.1667 16.3337V16.3337C22.1667 16.6433 22.1667 16.7981 22.1496 16.928C22.0314 17.8255 21.3252 18.5317 20.4277 18.6499C20.2978 18.667 20.143 18.667 19.8333 18.667H8.16668C7.85706 18.667 7.70226 18.667 7.57229 18.6499C6.67482 18.5317 5.96861 17.8255 5.85045 16.928C5.83334 16.7981 5.83334 16.6433 5.83334 16.3337V16.3337"
    stroke="none"
    stroke-width="2"
  />
</svg>
