<svg width="28" height="28" viewBox="0 0 28 28" fill="none" xmlns="http://www.w3.org/2000/svg">
<path d="M19.25 23.917H8.75" stroke="#C1B2B2" stroke-width="2" stroke-linecap="round"/>
<path d="M15 21.583C15 22.1353 14.5523 22.583 14 22.583C13.4477 22.583 13 22.1353 13 21.583H15ZM13 21.583V18.6663H15V21.583H13Z" fill="#C1B2B2"/>
<path d="M12.25 11.083H15.75" stroke="#C1B2B2" stroke-width="2" stroke-linecap="round"/>
<path d="M6.41667 16.9163C6.41667 16.9163 4.08333 15.1663 4.08333 12.2497C4.08333 11.3568 4.08333 10.5732 4.08333 9.9157C4.08333 9.60652 4.08333 9.45192 4.10044 9.32196C4.2186 8.42449 4.92481 7.71827 5.82228 7.60012C5.95225 7.58301 6.10705 7.58301 6.41667 7.58301V7.58301C6.72628 7.58301 6.88108 7.58301 7.01105 7.60012C7.90852 7.71827 8.61473 8.42449 8.73289 9.32196C8.75 9.45192 8.75 9.60673 8.75 9.91634V11.083" stroke="#C1B2B2" stroke-width="2" stroke-linecap="round"/>
<path d="M21.5833 16.9163C21.5833 16.9163 23.9167 15.1663 23.9167 12.2497C23.9167 11.3568 23.9167 10.5732 23.9167 9.9157C23.9167 9.60652 23.9167 9.45192 23.8996 9.32196C23.7814 8.42449 23.0752 7.71827 22.1777 7.60012C22.0478 7.58301 21.8929 7.58301 21.5833 7.58301V7.58301C21.2737 7.58301 21.1189 7.58301 20.9889 7.60012C20.0915 7.71827 19.3853 8.42449 19.2671 9.32196C19.25 9.45192 19.25 9.60673 19.25 9.91634V11.083" stroke="#C1B2B2" stroke-width="2" stroke-linecap="round"/>
<path d="M19.25 13.6096V8.41699C19.25 7.31242 18.3546 6.41699 17.25 6.41699H10.75C9.64543 6.41699 8.75 7.31242 8.75 8.41699V13.6096C8.75 14.947 9.41841 16.1959 10.5312 16.9378L13.4453 18.8805C13.7812 19.1045 14.2188 19.1045 14.5547 18.8805L17.4688 16.9378C18.5816 16.1959 19.25 14.947 19.25 13.6096Z" stroke="#C1B2B2" stroke-width="2"/>
</svg>
