<svg width="26" height="26" viewBox="0 0 23 26" fill="none" xmlns="http://www.w3.org/2000/svg">
<g filter="url(#filter0_d_2_570)">
<path d="M16.6111 18.6119C15.5556 19.6351 14.4031 19.4735 13.2937 18.9889C12.1197 18.4934 11.0426 18.4719 9.80398 18.9889C8.25299 19.6567 7.43441 19.4628 6.50812 18.6119C1.25199 13.1942 2.02748 4.94378 7.99449 4.6422C9.44854 4.7176 10.461 5.43924 11.3119 5.50386C12.5828 5.24536 13.7999 4.50218 15.1571 4.59912C16.7834 4.72837 18.0113 5.37461 18.8191 6.53786C15.4586 8.55199 16.2557 12.9788 19.3361 14.2174C18.7222 15.833 17.9251 17.4379 16.6003 18.6227L16.6111 18.6119ZM11.2042 4.57758C11.0426 2.1757 12.9921 0.193874 15.2324 0C15.5448 2.77886 12.7121 4.84685 11.2042 4.57758Z" fill="white"/>
</g>
<defs>
<filter id="filter0_d_2_570" x="0.0169492" y="0" width="22.3022" height="25.3558" filterUnits="userSpaceOnUse" color-interpolation-filters="sRGB">
<feFlood flood-opacity="0" result="BackgroundImageFix"/>
<feColorMatrix in="SourceAlpha" type="matrix" values="0 0 0 0 0 0 0 0 0 0 0 0 0 0 0 0 0 0 127 0" result="hardAlpha"/>
<feOffset dy="2.98305"/>
<feGaussianBlur stdDeviation="1.49153"/>
<feComposite in2="hardAlpha" operator="out"/>
<feColorMatrix type="matrix" values="0 0 0 0 0 0 0 0 0 0 0 0 0 0 0 0 0 0 0.09 0"/>
<feBlend mode="normal" in2="BackgroundImageFix" result="effect1_dropShadow_2_570"/>
<feBlend mode="normal" in="SourceGraphic" in2="effect1_dropShadow_2_570" result="shape"/>
</filter>
</defs>
</svg>
